<?xml version="1.0" encoding="iso-8859-1"?>
<!-- Generator: Adobe Illustrator 16.0.0, SVG Export Plug-In . SVG Version: 6.00 Build 0)  -->
<!DOCTYPE svg PUBLIC "-//W3C//DTD SVG 1.1//EN" "http://www.w3.org/Graphics/SVG/1.1/DTD/svg11.dtd">
<svg version="1.1" id="Layer_1" xmlns="http://www.w3.org/2000/svg" xmlns:xlink="http://www.w3.org/1999/xlink" x="0px" y="0px"
	 width="512px" height="512px" viewBox="0 0 512 512" style="enable-background:new 0 0 512 512;" xml:space="preserve">
<path d="M256,29.995C131.181,29.995,29.995,131.181,29.995,256S131.181,482.005,256,482.005S482.005,380.819,482.005,256
	S380.819,29.995,256,29.995z M245.486,136.933v-28.974c0-5.809,4.707-10.516,10.514-10.516s10.517,4.708,10.517,10.516v28.974v0
	c0,5.808-4.709,10.516-10.517,10.516S245.486,142.741,245.486,136.933L245.486,136.933z M156.587,230.866
	c-0.899,5.101-5.336,8.691-10.343,8.691c-0.606,0-1.22-0.053-1.838-0.162l-28.535-5.031c-5.72-1.009-9.539-6.462-8.531-12.181
	c1.01-5.72,6.465-9.538,12.182-8.531l28.535,5.032C153.777,219.692,157.597,225.146,156.587,230.866z M176.299,169.77
	l-18.624-22.196c-3.733-4.449-3.153-11.082,1.295-14.814c4.45-3.733,11.082-3.153,14.814,1.296l18.625,22.195
	c3.733,4.449,3.153,11.082-1.296,14.815c-1.969,1.653-4.369,2.46-6.753,2.46C181.358,173.526,178.379,172.248,176.299,169.77z
	 M312.153,306.981c-8.87,13.016-18.033,26.464-18.587,44.648c-0.137,4.488-3.338,8.174-7.558,9.089
	c3.904,1.22,6.736,4.864,6.736,9.169c0,3.811-2.224,7.093-5.439,8.646c3.215,1.553,5.439,4.835,5.439,8.646
	c0,5.305-4.3,9.605-9.607,9.605h-5.871c-1.813,10.104-10.641,17.771-21.266,17.771c-10.624,0-19.453-7.668-21.266-17.771h-5.871
	c-5.306,0-9.607-4.301-9.607-9.605c0-3.811,2.224-7.093,5.44-8.646c-3.216-1.553-5.44-4.835-5.44-8.646
	c0-4.325,2.859-7.98,6.79-9.184c-4.223-0.914-7.426-4.601-7.563-9.091c-0.554-18.189-9.732-31.638-18.608-44.644
	c-10.646-15.606-21.65-31.735-21.65-60.141c0-40.745,34.891-73.893,77.776-73.893c42.887,0,77.777,33.148,77.777,73.893
	C333.777,275.253,322.784,291.383,312.153,306.981z M335.703,169.77c-2.081,2.478-5.06,3.756-8.062,3.756
	c-2.384,0-4.783-0.807-6.753-2.46c-4.448-3.733-5.03-10.366-1.297-14.815l18.625-22.195c3.732-4.449,10.365-5.03,14.814-1.296
	c4.449,3.733,5.028,10.366,1.296,14.814L335.703,169.77z M396.129,234.364l-28.534,5.032c-0.618,0.108-1.231,0.162-1.838,0.162
	c-5.007,0-9.444-3.59-10.343-8.691c-1.009-5.719,2.81-11.173,8.528-12.181l28.535-5.032c5.719-1.008,11.174,2.811,12.182,8.53
	C405.667,227.901,401.848,233.355,396.129,234.364z"/>
</svg>
