<?xml version="1.0" encoding="utf-8"?>
<!-- Generator: Adobe Illustrator 18.0.0, SVG Export Plug-In . SVG Version: 6.00 Build 0)  -->
<!DOCTYPE svg PUBLIC "-//W3C//DTD SVG 1.1//EN" "http://www.w3.org/Graphics/SVG/1.1/DTD/svg11.dtd">
<svg version="1.1" id="Слой_1" xmlns="http://www.w3.org/2000/svg" xmlns:xlink="http://www.w3.org/1999/xlink" x="0px" y="0px"
	 viewBox="0 0 85 85" enable-background="new 0 0 85 85" xml:space="preserve">
<circle fill="#F9FAFD" cx="42.5" cy="42.5" r="40.1"/>
<path fill="#0C0E0F" d="M42.5,0.3C19.2,0.3,0.3,19.2,0.3,42.5s18.9,42.3,42.3,42.3c23.3,0,42.3-18.9,42.3-42.3S65.9,0.3,42.5,0.3z
	 M42.5,80.6c-21,0-38.1-17.1-38.1-38.1S21.5,4.4,42.5,4.4c21,0,38.1,17.1,38.1,38.1S63.6,80.6,42.5,80.6z"/>
<g>
	<g>
		<path fill="#0C0E0F" d="M12.9,23.8v36.6l33-18.3L12.9,23.8z M16.8,29.7l22.5,12.5L16.8,54.6V29.7z"/>
	</g>
	<g>
		<path fill="#0C0E0F" d="M72.2,61.2V24.6l-33,18.3L72.2,61.2z M68.2,55.4L45.8,42.9l22.5-12.5V55.4z"/>
	</g>
</g>
</svg>
