<?xml version="1.0" encoding="utf-8"?>
<!-- Generator: Adobe Illustrator 18.0.0, SVG Export Plug-In . SVG Version: 6.00 Build 0)  -->
<!DOCTYPE svg PUBLIC "-//W3C//DTD SVG 1.1//EN" "http://www.w3.org/Graphics/SVG/1.1/DTD/svg11.dtd">
<svg version="1.1" id="Слой_1" xmlns="http://www.w3.org/2000/svg" xmlns:xlink="http://www.w3.org/1999/xlink" x="0px" y="0px"
	 viewBox="0 0 85 85" enable-background="new 0 0 85 85" xml:space="preserve">
<circle fill="#F9FAFD" cx="42.5" cy="42.5" r="40.1"/>
<path fill="#0C0E0F" d="M42.5,0.3C19.2,0.3,0.3,19.2,0.3,42.5s18.9,42.3,42.3,42.3c23.3,0,42.3-18.9,42.3-42.3S65.9,0.3,42.5,0.3z
	 M42.5,80.6c-21,0-38.1-17.1-38.1-38.1S21.5,4.4,42.5,4.4c21,0,38.1,17.1,38.1,38.1S63.6,80.6,42.5,80.6z"/>
<g>
	<path fill="#0C0E0F" d="M14.1,13v59.1l53.1-29.5L14.1,13z M19,20.8l39.1,21.8L19,64.3V20.8z"/>
	<circle fill="#FFFFFF" cx="71.6" cy="43.2" r="7.4"/>
	<path fill="#0C0E0F" d="M71.3,33.6c-5.3,0-9.7,4.3-9.7,9.7s4.3,9.7,9.7,9.7c5.3,0,9.7-4.3,9.7-9.7S76.6,33.6,71.3,33.6z M71.3,49.5
		c-3.4,0-6.2-2.8-6.2-6.2c0-3.4,2.8-6.2,6.2-6.2c3.4,0,6.2,2.8,6.2,6.2C77.5,46.7,74.7,49.5,71.3,49.5z"/>
</g>
</svg>
