<?xml version="1.0" encoding="utf-8"?>
<!-- Generator: Adobe Illustrator 18.0.0, SVG Export Plug-In . SVG Version: 6.00 Build 0)  -->
<!DOCTYPE svg PUBLIC "-//W3C//DTD SVG 1.1//EN" "http://www.w3.org/Graphics/SVG/1.1/DTD/svg11.dtd">
<svg version="1.1" id="Слой_1" xmlns="http://www.w3.org/2000/svg" xmlns:xlink="http://www.w3.org/1999/xlink" x="0px" y="0px"
	 viewBox="0 0 85 85" enable-background="new 0 0 85 85" xml:space="preserve">
<circle fill="#F9FAFD" cx="42.5" cy="42.5" r="40.1"/>
<path fill="#0C0E0F" d="M42.5,0.3C19.2,0.3,0.3,19.2,0.3,42.5s18.9,42.3,42.3,42.3c23.3,0,42.3-18.9,42.3-42.3S65.9,0.3,42.5,0.3z
	 M42.5,80.6c-21,0-38.1-17.1-38.1-38.1S21.5,4.4,42.5,4.4c21,0,38.1,17.1,38.1,38.1S63.6,80.6,42.5,80.6z"/>
<g>
	<g>
		<rect x="12.2" y="59.4" fill="#121314" width="30.4" height="4.8"/>
	</g>
	<g>
		<rect x="12.2" y="20.9" fill="#121314" width="30.4" height="4.8"/>
	</g>
</g>
<g>
	<g>
		<rect x="24.9" y="5.1" fill="#121314" width="4.8" height="75.6"/>
	</g>
</g>
<g>
	<rect x="55.3" y="28" fill="#121314" width="4.8" height="30.4"/>
</g>
<g>
	<rect x="27.3" y="40.8" fill="#121314" width="56" height="4.8"/>
</g>
</svg>
